<svg width="11" height="8" viewBox="0 0 11 8" fill="none" xmlns="http://www.w3.org/2000/svg">
<g clip-path="url(#clip0_103_223)">
<path d="M3.82607 3.82594C4.20443 3.82594 4.5743 3.71374 4.8889 3.50353C5.2035 3.29332 5.4487 2.99454 5.59349 2.64498C5.73828 2.29542 5.77617 1.91077 5.70235 1.53968C5.62854 1.16858 5.44634 0.82771 5.17879 0.560166C4.91125 0.292622 4.57038 0.110422 4.19928 0.0366069C3.82819 -0.0372083 3.44354 0.000676307 3.09398 0.14547C2.74442 0.290264 2.44564 0.535463 2.23543 0.850062C2.02522 1.16466 1.91302 1.53453 1.91302 1.91289C1.91353 2.42011 2.11525 2.9064 2.4739 3.26506C2.83256 3.62371 3.31885 3.82543 3.82607 3.82594ZM3.82607 0.637529C4.07831 0.637529 4.32489 0.712328 4.53462 0.852467C4.74435 0.992605 4.90782 1.19179 5.00435 1.42483C5.10088 1.65787 5.12614 1.91431 5.07693 2.1617C5.02772 2.4091 4.90625 2.63635 4.72789 2.81471C4.54952 2.99307 4.32228 3.11454 4.07488 3.16375C3.82748 3.21296 3.57105 3.1877 3.33801 3.09117C3.10497 2.99464 2.90578 2.83118 2.76564 2.62145C2.6255 2.41171 2.55071 2.16513 2.55071 1.91289C2.55071 1.57464 2.68507 1.25025 2.92425 1.01107C3.16343 0.771898 3.48782 0.637529 3.82607 0.637529Z" fill="#376576"/>
<path d="M3.82611 4.46387C3.06534 4.4648 2.33599 4.76742 1.79804 5.30537C1.2601 5.84331 0.957471 6.57266 0.956543 7.33342C0.956543 7.41799 0.990135 7.49908 1.04993 7.55888C1.10972 7.61867 1.19082 7.65226 1.27538 7.65226C1.35995 7.65226 1.44104 7.61867 1.50084 7.55888C1.56063 7.49908 1.59422 7.41799 1.59422 7.33342C1.59422 6.74149 1.82937 6.17381 2.24793 5.75525C2.66649 5.33669 3.23418 5.10155 3.82611 5.10155C4.41804 5.10155 4.98573 5.33669 5.40429 5.75525C5.82285 6.17381 6.05799 6.74149 6.05799 7.33342C6.05799 7.41799 6.09158 7.49908 6.15138 7.55888C6.21117 7.61867 6.29227 7.65226 6.37683 7.65226C6.46139 7.65226 6.54249 7.61867 6.60229 7.55888C6.66208 7.49908 6.69567 7.41799 6.69567 7.33342C6.69475 6.57266 6.39212 5.84331 5.85417 5.30537C5.31623 4.76742 4.58688 4.4648 3.82611 4.46387Z" fill="#376576"/>
</g>
<g clip-path="url(#clip1_103_223)">
<path d="M8.13058 4.7825C8.41436 4.7825 8.69176 4.69835 8.92771 4.54069C9.16366 4.38304 9.34755 4.15896 9.45615 3.89678C9.56475 3.63461 9.59316 3.34613 9.5378 3.0678C9.48244 2.78948 9.34579 2.53383 9.14513 2.33317C8.94447 2.13251 8.68882 1.99586 8.4105 1.9405C8.13218 1.88514 7.84369 1.91356 7.58152 2.02215C7.31934 2.13075 7.09526 2.31465 6.93761 2.55059C6.77995 2.78654 6.6958 3.06394 6.6958 3.34772C6.69618 3.72813 6.84747 4.09285 7.11646 4.36184C7.38545 4.63083 7.75017 4.78212 8.13058 4.7825ZM8.13058 2.39119C8.31977 2.39119 8.5047 2.44729 8.662 2.5524C8.8193 2.6575 8.9419 2.80689 9.01429 2.98167C9.08669 3.15645 9.10563 3.34878 9.06873 3.53432C9.03182 3.71987 8.94072 3.89031 8.80695 4.02408C8.67317 4.15785 8.50274 4.24895 8.31719 4.28586C8.13164 4.32277 7.93932 4.30382 7.76454 4.23143C7.58976 4.15903 7.44037 4.03643 7.33526 3.87913C7.23016 3.72183 7.17406 3.5369 7.17406 3.34772C7.17406 3.09403 7.27484 2.85074 7.45422 2.67135C7.6336 2.49197 7.8769 2.39119 8.13058 2.39119Z" fill="#376576"/>
<path d="M8.13057 5.26064C7.55999 5.26133 7.01298 5.4883 6.60952 5.89176C6.20606 6.29522 5.97909 6.84223 5.97839 7.4128C5.97839 7.47622 6.00359 7.53705 6.04843 7.58189C6.09328 7.62674 6.1541 7.65193 6.21752 7.65193C6.28095 7.65193 6.34177 7.62674 6.38661 7.58189C6.43146 7.53705 6.45665 7.47622 6.45665 7.4128C6.45665 6.96886 6.63301 6.54309 6.94693 6.22917C7.26085 5.91525 7.68662 5.73889 8.13057 5.73889C8.57452 5.73889 9.00028 5.91525 9.3142 6.22917C9.62812 6.54309 9.80448 6.96886 9.80448 7.4128C9.80448 7.47622 9.82967 7.53705 9.87452 7.58189C9.91937 7.62674 9.98019 7.65193 10.0436 7.65193C10.107 7.65193 10.1679 7.62674 10.2127 7.58189C10.2575 7.53705 10.2827 7.47622 10.2827 7.4128C10.282 6.84223 10.0551 6.29522 9.65162 5.89176C9.24816 5.4883 8.70115 5.26133 8.13057 5.26064Z" fill="#376576"/>
</g>
<defs>
<clipPath id="clip0_103_223">
<rect width="7.65217" height="7.65217" fill="white"/>
</clipPath>
<clipPath id="clip1_103_223">
<rect width="5.73913" height="5.73913" fill="white" transform="translate(5.26086 1.91289)"/>
</clipPath>
</defs>
</svg>
